# xmcd
#
# Track frame offsets:
#	150
#	19920
#	37686
#	51395
#
# Disc length: 938 seconds
#
# Revision: 11
# Processed by: cddbd v1.5.1PL0 Copyright (c) Steve Scherf et al.
# Submitted via: audiograbber 1.83.01
#
DISCID=2903a804
DTITLE=Ricci - Boleros
DYEAR=2001
DGENRE=Ballad
TTITLE0=Cuídate
TTITLE1=Tu verdad
TTITLE2=Me declaro culpable
TTITLE3=Soñar
EXTD=Todos los temas fueron compuestos por Ricci excepto "Me declaro culpable",
EXTD=cuya letra pertenece a Pedro A. Favini. Música Ricci. San Javier Producci
EXTD=ones, Lavelle 1569, 3º, 303, tel. 43733198. Grabado en Estudio La Oficina 
EXTD=Records. Contrataciones 4362 - 1039. Buenos Aires Argentina.
EXTT0=
EXTT1=
EXTT2=Autor Letra Pedro A. Favini. Música Ricci.
EXTT3=
PLAYORDER=
